<svg width="56" height="31" viewBox="0 0 56 31" fill="none" xmlns="http://www.w3.org/2000/svg">
<path d="M50.2149 16.96C50.2149 18.656 51.0789 19.488 52.7749 19.488H55.1429V23.52H52.2949C47.9749 23.52 45.5749 21.44 45.5749 17.12V11.424H42.6949V7.392H45.5749V2.912H50.2149V7.392H55.1429V11.424H50.2149V16.96Z" fill="#3C3C3C"/>
<path d="M36.7624 18.72C36.7624 16.128 26.6824 19.424 26.6824 12.416C26.6824 8.96001 29.2104 7.07201 33.7544 7.07201C38.1384 7.07201 40.6664 9.056 41.0824 12.8H36.7624C36.4744 11.424 35.5144 10.752 33.7544 10.752C32.0264 10.752 31.1624 11.232 31.1624 12.192C31.1624 14.784 41.2424 11.488 41.2424 18.496C41.2424 21.952 38.6824 23.84 34.0104 23.84C29.3384 23.84 26.6824 21.792 26.3624 17.92H30.6824C30.8424 19.392 31.9944 20.16 34.0104 20.16C35.8344 20.16 36.7624 19.68 36.7624 18.72Z" fill="#3C3C3C"/>
<path d="M21.3422 5.952C19.3902 5.952 18.2062 4.832 18.2062 2.976C18.2062 1.12 19.3902 0 21.3422 0C23.2622 0 24.4462 1.12 24.4462 2.976C24.4462 4.832 23.2622 5.952 21.3422 5.952ZM23.6462 7.392V23.52H19.0062V7.392H23.6462Z" fill="#3C3C3C"/>
<path d="M0.96 20C0.96 18.592 1.792 17.696 3.488 17.216C1.856 16.256 0.96 14.72 0.96 12.64C0.96 9.216 3.232 7.07201 6.816 7.07201C9.216 7.07201 10.656 8.06401 11.104 10.048L11.2 10.464H11.968L13.44 7.39201C14.08 7.2 14.976 7.07201 15.68 7.07201C16.128 7.07201 16.64 7.10401 17.088 7.168V11.104H15.456C15.072 11.104 14.88 11.264 14.88 11.648V12.64C14.88 16.128 12.256 18.208 7.936 18.208C7.168 18.208 6.432 18.144 5.76 18.016C5.216 18.144 4.96 18.432 4.96 18.944C4.96 19.616 5.44 19.936 6.4 19.936H10.08C14.304 19.936 16.48 21.696 16.48 25.088C16.48 28.608 13.792 30.24 7.968 30.24H7.808C2.688 30.24 0 28.672 0 25.728C0 24.224 0.8 23.232 2.464 22.656C1.472 22.048 0.96 21.152 0.96 20ZM4.96 12.64C4.96 14.048 6.048 14.816 7.936 14.816C9.824 14.816 10.88 14.048 10.88 12.64C10.88 11.232 9.824 10.464 7.936 10.464C6.048 10.464 4.96 11.232 4.96 12.64ZM7.136 26.688H8.96C11.328 26.688 12.32 26.208 12.32 25.088C12.32 24.032 11.424 23.488 9.76 23.488H6.336C4.768 23.488 3.84 24.096 3.84 25.088C3.84 26.208 4.8 26.688 7.136 26.688Z" fill="#3C3C3C"/>
</svg>
